<?xml version="1.0" encoding="UTF-8" standalone="no"?>
<!DOCTYPE svg PUBLIC "-//W3C//DTD SVG 1.1//EN" "http://www.w3.org/Graphics/SVG/1.1/DTD/svg11.dtd">
<svg width="100%" height="100%" viewBox="0 0 527 785" version="1.1" xmlns="http://www.w3.org/2000/svg" xmlns:xlink="http://www.w3.org/1999/xlink" xml:space="preserve" xmlns:serif="http://www.serif.com/" style="fill-rule:evenodd;clip-rule:evenodd;stroke-linejoin:round;stroke-miterlimit:2;">
    <g transform="matrix(0.985832,0,0,1,7.46452,0)">
        <rect x="-7.572" y="0" width="534.412" height="779.166" style="fill:rgb(255,254,254);"/>
    </g>
    <g>
        <clipPath id="_clip1">
            <rect x="1.273" y="1.337" width="525.46" height="778.32" clip-rule="nonzero"/>
        </clipPath>
        <g clip-path="url(#_clip1)">
            <g transform="matrix(1,0,0,1,-33.5068,-795.433)">
                <rect x="33.84" y="795.83" width="526.4" height="17.86" style="fill:rgb(204,255,204);"/>
            </g>
            <g transform="matrix(1,0,0,1,-33.5068,-761.593)">
                <clipPath id="_clip2">
                    <rect x="34.78" y="762.93" width="525.46" height="778.32" clip-rule="nonzero"/>
                </clipPath>
                <g clip-path="url(#_clip2)">
                    <rect x="33.84" y="778.91" width="526.4" height="17.86" style="fill:rgb(255,255,153);"/>
                </g>
            </g>
            <g transform="matrix(1,0,0,1,-33.5068,-558.553)">
                <clipPath id="_clip3">
                    <rect x="34.78" y="559.89" width="525.46" height="778.32" clip-rule="nonzero"/>
                </clipPath>
                <g clip-path="url(#_clip3)">
                    <rect x="33.84" y="677.39" width="526.4" height="17.86" style="fill:rgb(252,213,180);"/>
                </g>
            </g>
            <g transform="matrix(1,0,0,1,-33.5068,-524.713)">
                <clipPath id="_clip4">
                    <rect x="34.78" y="526.05" width="525.46" height="778.32" clip-rule="nonzero"/>
                </clipPath>
                <g clip-path="url(#_clip4)">
                    <rect x="33.84" y="660.47" width="526.4" height="17.86" style="fill:rgb(255,255,153);"/>
                </g>
            </g>
            <g transform="matrix(1,0,0,1,-33.5068,-321.673)">
                <clipPath id="_clip5">
                    <rect x="34.78" y="323.01" width="525.46" height="778.32" clip-rule="nonzero"/>
                </clipPath>
                <g clip-path="url(#_clip5)">
                    <rect x="33.84" y="558.95" width="526.4" height="17.86" style="fill:rgb(255,255,153);"/>
                </g>
            </g>
            <g transform="matrix(1,0,0,1,-33.5068,-175.033)">
                <clipPath id="_clip6">
                    <rect x="34.78" y="176.37" width="525.46" height="778.32" clip-rule="nonzero"/>
                </clipPath>
                <g clip-path="url(#_clip6)">
                    <rect x="33.84" y="485.63" width="526.4" height="17.86" style="fill:rgb(252,213,180);"/>
                </g>
            </g>
            <g transform="matrix(1,0,0,1,-33.5068,-141.193)">
                <clipPath id="_clip7">
                    <rect x="34.78" y="142.53" width="525.46" height="778.32" clip-rule="nonzero"/>
                </clipPath>
                <g clip-path="url(#_clip7)">
                    <rect x="33.84" y="468.71" width="526.4" height="17.86" style="fill:rgb(255,255,153);"/>
                </g>
            </g>
            <g transform="matrix(1,0,0,1,-33.5068,61.847)">
                <clipPath id="_clip8">
                    <rect x="34.78" y="-60.51" width="525.46" height="778.32" clip-rule="nonzero"/>
                </clipPath>
                <g clip-path="url(#_clip8)">
                    <rect x="33.84" y="367.19" width="526.4" height="17.86" style="fill:rgb(255,255,153);"/>
                </g>
            </g>
            <g transform="matrix(1,0,0,1,-33.5068,208.487)">
                <clipPath id="_clip9">
                    <rect x="34.78" y="-207.15" width="525.46" height="778.32" clip-rule="nonzero"/>
                </clipPath>
                <g clip-path="url(#_clip9)">
                    <rect x="33.84" y="293.87" width="526.4" height="17.86" style="fill:rgb(204,255,204);"/>
                </g>
            </g>
            <g transform="matrix(1,0,0,1,-33.5068,242.327)">
                <clipPath id="_clip10">
                    <rect x="34.78" y="-240.99" width="525.46" height="778.32" clip-rule="nonzero"/>
                </clipPath>
                <g clip-path="url(#_clip10)">
                    <rect x="33.84" y="276.95" width="526.4" height="17.86" style="fill:rgb(255,255,153);"/>
                </g>
            </g>
            <g transform="matrix(1,0,0,1,-33.5068,501.767)">
                <clipPath id="_clip11">
                    <rect x="34.78" y="-500.43" width="525.46" height="778.32" clip-rule="nonzero"/>
                </clipPath>
                <g clip-path="url(#_clip11)">
                    <rect x="33.84" y="147.23" width="526.4" height="17.86" style="fill:rgb(255,255,153);"/>
                </g>
            </g>
            <text x="372.573px" y="12.617px" style="font-family:'Arial-BoldMT', 'Arial', sans-serif;font-weight:700;font-size:11.28px;">T<tspan x="379.15px 381.971px 388.548px 394.509px 405.473px 408.294px 414.871px 420.832px 429.913px 437.434px 444.018px 447.771px 455.293px 462.813px 469.398px 473.151px 485.373px 493.517px 506.993px 513.573px " y="12.617px 12.617px 12.617px 12.617px 12.617px 12.617px 12.617px 12.617px 12.617px 12.617px 12.617px 12.617px 12.617px 12.617px 12.617px 12.617px 12.617px 12.617px 12.617px 12.617px ">Ins Ins Suf Sat B TB</tspan></text>
            <g>
                <text x="3.153px" y="29.537px" style="font-family:'Arial-BoldMT', 'Arial', sans-serif;font-weight:700;font-size:11.28px;">2<tspan x="9.737px 13.181px 26.653px 35.109px 37.929px 44.505px 51.082px 57.658px 64.234px 70.81px " y="29.537px 29.537px 29.537px 29.537px 29.537px 29.537px 29.537px 29.537px 29.537px 29.537px ">. Richesse</tspan></text>
                <text x="26.653px" y="45.517px" style="font-family:'ArialMT', 'Arial', sans-serif;font-size:11.28px;">a<tspan x="33.233px 36.053px 44.513px 52.973px 55.793px 61.433px 68.013px 74.592px " y="45.517px 45.517px 45.517px 45.517px 45.517px 45.517px 45.517px 45.517px ">/ Riches</tspan>se<tspan x="92.453px 95.272px 101.852px 108.433px 111.251px 114.064px 120.645px 127.225px 133.805px 140.386px 146.966px 153.546px 156.369px 162.949px 165.769px 168.589px 171.409px 174.229px 179.869px 186.449px 189.268px 193.028px 195.844px 198.66px 205.244px 211.827px 218.411px 221.227px 226.867px 229.687px 232.501px 239.083px 245.664px 252.246px 255.066px 257.886px " y="45.517px 45.517px 45.517px 45.517px 45.517px 45.517px 45.517px 45.517px 45.517px 45.517px 45.517px 45.517px 45.517px 45.517px 45.517px 45.517px 45.517px 45.517px 45.517px 45.517px 45.517px 45.517px 45.517px 45.517px 45.517px 45.517px 45.517px 45.517px 45.517px 45.517px 45.517px 45.517px 45.517px 45.517px 45.517px 45.517px "> du langage utilisé (linguistique, s</tspan>ci<tspan x="271.981px 278.563px 285.145px 287.965px 290.785px 293.605px 296.419px 303.001px 309.582px 316.164px 318.984px 321.804px 327.444px 334.023px 337.783px 344.363px 350.942px 354.702px 361.282px " y="45.517px 45.517px 45.517px 45.517px 45.517px 45.517px 45.517px 45.517px 45.517px 45.517px 45.517px 45.517px 45.517px 45.517px 45.517px 45.517px 45.517px 45.517px 45.517px ">entifique, corporel</tspan></text>
                <text x="43.573px" y="59.617px" style="font-family:'ArialMT', 'Arial', sans-serif;font-size:11.28px;">e<tspan x="50.153px 52.973px 55.793px 62.372px 66.132px 68.952px 71.772px 77.412px 80.232px 83.046px 89.628px 96.209px 102.791px " y="59.617px 59.617px 59.617px 59.617px 59.617px 59.617px 59.617px 59.617px 59.617px 59.617px 59.617px 59.617px 59.617px ">t artistique)</tspan></text>
                <text x="26.653px" y="80.297px" style="font-family:'ArialMT', 'Arial', sans-serif;font-size:11.28px;">b<tspan x="33.233px 36.053px 44.513px 52.034px 58.613px 65.193px 71.772px 78.352px 84.932px 87.752px 90.566px 97.147px 103.728px 106.551px 113.132px 119.713px " y="80.297px 80.297px 80.297px 80.297px 80.297px 80.297px 80.297px 80.297px 80.297px 80.297px 80.297px 80.297px 80.297px 80.297px 80.297px 80.297px ">/ Adéquation des</tspan> mo<tspan x="144.468px 150.108px 156.688px 163.267px 168.907px 171.409px 177.988px 184.568px " y="80.297px 80.297px 80.297px 80.297px 80.297px 80.297px 80.297px 80.297px ">yens aux</tspan> o<tspan x="199.923px 206.505px 209.319px 215.901px 221.541px 224.361px 227.181px 230.001px " y="80.297px 80.297px 80.297px 80.297px 80.297px 80.297px 80.297px 80.297px ">bjectifs</tspan></text>
                <text x="26.653px" y="108.497px" style="font-family:'ArialMT', 'Arial', sans-serif;font-size:11.28px;">c/<tspan x="35.113px 43.573px 52.033px 58.617px 65.2px 68.016px 70.832px 73.652px 80.232px 83.052px 89.632px 96.211px " y="108.497px 108.497px 108.497px 108.497px 108.497px 108.497px 108.497px 108.497px 108.497px 108.497px 108.497px 108.497px "> Qualité des</tspan> co<tspan x="117.205px 123.785px 126.605px 133.184px 139.764px 146.343px " y="108.497px 108.497px 108.497px 108.497px 108.497px 108.497px ">ntenus</tspan></text>
                <text x="3.153px" y="131.057px" style="font-family:'Arial-BoldItalicMT', 'Arial', sans-serif;font-weight:700;font-style:italic;font-size:11.28px;">B<tspan x="11.613px 14.433px 21.015px 24.457px 26.653px 35.107px 41.689px 48.27px 54.846px 61.426px 66.123px 72.703px 79.279px " y="131.057px 131.057px 131.057px 131.057px 131.057px 131.057px 131.057px 131.057px 131.057px 131.057px 131.057px 131.057px 131.057px ">.2. Recherche</tspan></text>
                <text x="3.153px" y="147.977px" style="font-family:'Arial-BoldMT', 'Arial', sans-serif;font-weight:700;font-size:11.28px;">1<tspan x="9.735px 13.177px 26.653px 34.174px 40.758px 47.342px 52.042px 54.859px " y="147.977px 147.977px 147.977px 147.977px 147.977px 147.977px 147.977px 147.977px ">. Esprit</tspan> c<tspan x="68.349px 73.049px 75.866px 79.63px 82.454px 89.034px 95.615px " y="147.977px 147.977px 147.977px 147.977px 147.977px 147.977px 147.977px ">ritique</tspan></text>
                <text x="26.653px" y="170.537px" style="font-family:'ArialMT', 'Arial', sans-serif;font-size:11.28px;">a<tspan x="33.233px 36.053px 44.513px 52.034px 58.613px 61.433px 64.253px 67.073px 73.653px 80.232px 86.812px 89.632px 96.212px 99.032px 105.611px 112.191px 117.831px 124.411px " y="170.537px 170.537px 170.537px 170.537px 170.537px 170.537px 170.537px 170.537px 170.537px 170.537px 170.537px 170.537px 170.537px 170.537px 170.537px 170.537px 170.537px 170.537px ">/ Aptitude à poser</tspan> l<tspan x="134.124px 140.707px 146.347px 148.85px 155.429px 162.009px 168.589px 175.168px 181.748px " y="170.537px 170.537px 170.537px 170.537px 170.537px 170.537px 170.537px 170.537px 170.537px ">es bonnes</tspan> q<tspan x="197.102px 203.681px 210.261px 215.901px 218.721px 221.536px 228.118px 234.7px " y="170.537px 170.537px 170.537px 170.537px 170.537px 170.537px 170.537px 170.537px ">uestions</tspan></text>
                <text x="26.653px" y="198.737px" style="font-family:'ArialMT', 'Arial', sans-serif;font-size:11.28px;">b<tspan x="33.233px 36.053px 44.513px 52.973px 55.793px 61.433px 64.253px 70.833px 77.412px 83.052px 89.632px 92.452px 99.032px 105.611px 112.191px 118.771px 125.35px 131.93px 134.75px 141.329px 144.149px 150.729px 157.309px " y="198.737px 198.737px 198.737px 198.737px 198.737px 198.737px 198.737px 198.737px 198.737px 198.737px 198.737px 198.737px 198.737px 198.737px 198.737px 198.737px 198.737px 198.737px 198.737px 198.737px 198.737px 198.737px 198.737px ">/ Distance adéquate par</tspan> ra<tspan x="174.545px 181.124px 187.704px 194.284px 198.043px 200.863px 203.683px 210.263px 216.843px 222.483px 224.985px 230.625px 237.205px 243.785px " y="198.737px 198.737px 198.737px 198.737px 198.737px 198.737px 198.737px 198.737px 198.737px 198.737px 198.737px 198.737px 198.737px 198.737px ">pport aux sour</tspan>ce<tspan x="259.764px " y="198.737px ">s</tspan></text>
                <text x="26.653px" y="226.937px" style="font-family:'ArialMT', 'Arial', sans-serif;font-size:11.28px;">c/<tspan x="35.113px 43.573px 46.393px 52.973px 55.793px 62.372px 66.132px 72.712px 76.471px 83.051px 85.871px 92.451px 95.271px 98.085px 104.666px 111.248px 114.07px 120.651px 123.471px 126.291px 129.111px 132.871px 139.454px 142.271px 145.091px 151.67px 161.07px 167.649px 174.229px 177.049px 179.869px 186.449px 193.028px " y="226.937px 226.937px 226.937px 226.937px 226.937px 226.937px 226.937px 226.937px 226.937px 226.937px 226.937px 226.937px 226.937px 226.937px 226.937px 226.937px 226.937px 226.937px 226.937px 226.937px 226.937px 226.937px 226.937px 226.937px 226.937px 226.937px 226.937px 226.937px 226.937px 226.937px 226.937px 226.937px 226.937px "> Interprétation et traitement des</tspan> i<tspan x="204.618px 211.202px 214.022px 220.602px " y="226.937px 226.937px 226.937px 226.937px ">nfor</tspan>ma<tspan x="240.34px 243.16px 245.975px 252.557px 259.14px 264.78px 267.284px 273.863px 280.443px 283.263px 289.843px 296.422px 303.002px 309.582px " y="226.937px 226.937px 226.937px 226.937px 226.937px 226.937px 226.937px 226.937px 226.937px 226.937px 226.937px 226.937px 226.937px 226.937px ">tions obtenues</tspan></text>
                <text x="3.153px" y="249.497px" style="font-family:'Arial-BoldMT', 'Arial', sans-serif;font-weight:700;font-size:11.28px;">2<tspan x="9.738px 13.183px 26.653px 35.11px 39.811px 46.387px 52.963px 63.302px 69.883px 76.46px 80.216px 86.792px 90.548px 93.368px 99.945px " y="249.497px 249.497px 249.497px 249.497px 249.497px 249.497px 249.497px 249.497px 249.497px 249.497px 249.497px 249.497px 249.497px 249.497px 249.497px ">. Argumentation</tspan></text>
                <text x="26.653px" y="272.057px" style="font-family:'ArialMT', 'Arial', sans-serif;font-size:11.28px;">a<tspan x="33.233px 36.053px 44.513px 52.034px 58.613px 61.433px 64.253px 67.073px 73.654px 80.236px 86.817px 89.632px 96.213px 99.032px 101.846px 103.726px 110.307px 116.889px 123.471px 126.285px " y="272.057px 272.057px 272.057px 272.057px 272.057px 272.057px 272.057px 272.057px 272.057px 272.057px 272.057px 272.057px 272.057px 272.057px 272.057px 272.057px 272.057px 272.057px 272.057px 272.057px ">/ Aptitude à l&apos;analy</tspan>se<tspan x="144.144px 146.971px 153.55px 156.37px 159.19px 165.772px 168.59px 171.405px 177.987px 180.809px " y="272.057px 272.057px 272.057px 272.057px 272.057px 272.057px 272.057px 272.057px 272.057px 272.057px "> et à la s</tspan>yn<tspan x="198.669px 201.489px 208.069px 214.648px " y="272.057px 272.057px 272.057px 272.057px ">thès</tspan>e</text>
                <text x="26.653px" y="293.677px" style="font-family:'ArialMT', 'Arial', sans-serif;font-size:11.28px;">b<tspan x="33.233px 36.053px 44.513px 52.973px 59.557px 66.14px 68.956px 71.772px 74.592px 81.172px 83.992px 90.572px 97.151px " y="293.677px 293.677px 293.677px 293.677px 293.677px 293.677px 293.677px 293.677px 293.677px 293.677px 293.677px 293.677px 293.677px ">/ Qualité des</tspan> co<tspan x="118.145px 124.725px 130.365px 133.181px 139.764px 145.404px 148.219px 154.801px 161.383px 167.023px 169.529px 176.109px 178.929px 181.749px 185.509px 192.088px 198.668px 205.248px 209.007px 215.587px 222.166px 228.746px 231.566px 238.146px 244.725px " y="293.677px 293.677px 293.677px 293.677px 293.677px 293.677px 293.677px 293.677px 293.677px 293.677px 293.677px 293.677px 293.677px 293.677px 293.677px 293.677px 293.677px 293.677px 293.677px 293.677px 293.677px 293.677px 293.677px 293.677px 293.677px ">nclusions et repérage des</tspan> q<tspan x="260.079px 266.658px 273.238px 278.878px 281.698px 284.513px 291.095px 297.677px 303.317px 305.823px 312.403px 318.983px " y="293.677px 293.677px 293.677px 293.677px 293.677px 293.677px 293.677px 293.677px 293.677px 293.677px 293.677px 293.677px ">uestions non</tspan></text>
                <text x="26.653px" y="307.777px" style="font-family:'ArialMT', 'Arial', sans-serif;font-size:11.28px;">ré<tspan x="36.992px 42.632px 49.214px 52.028px 58.61px 65.191px " y="307.777px 307.777px 307.777px 307.777px 307.777px 307.777px ">solues</tspan></text>
                <text x="3.153px" y="322.817px" style="font-family:'Arial-BoldItalicMT', 'Arial', sans-serif;font-weight:700;font-style:italic;font-size:11.28px;">B<tspan x="11.613px 14.433px 21.021px 26.653px 34.174px 40.758px 47.342px 53.926px 58.626px 61.443px 71.783px 78.367px 84.952px 88.716px 95.3px 99.064px 101.886px 108.465px " y="322.817px 322.817px 322.817px 322.817px 322.817px 322.817px 322.817px 322.817px 322.817px 322.817px 322.817px 322.817px 322.817px 322.817px 322.817px 322.817px 322.817px 322.817px ">.3 Expérimentation</tspan></text>
                <text x="3.153px" y="339.737px" style="font-family:'Arial-BoldMT', 'Arial', sans-serif;font-weight:700;font-size:11.28px;">1<tspan x="9.735px 13.177px 26.653px 36.053px 42.632px 46.392px 52.972px 59.551px 66.131px " y="339.737px 339.737px 339.737px 339.737px 339.737px 339.737px 339.737px 339.737px 339.737px ">. Méthode</tspan></text>
                <text x="26.653px" y="362.297px" style="font-family:'ArialMT', 'Arial', sans-serif;font-size:11.28px;">a<tspan x="33.233px 36.053px 44.513px 52.967px 59.549px 66.131px 72.712px 76.472px 83.051px 89.631px 95.271px 101.852px 104.671px 111.252px 117.833px 120.65px 123.464px 130.045px 132.869px 142.269px 148.849px 151.669px 158.25px 164.831px 171.412px 177.993px 180.806px 187.388px 193.969px 196.782px 203.363px 206.186px 212.767px 219.348px " y="362.297px 362.297px 362.297px 362.297px 362.297px 362.297px 362.297px 362.297px 362.297px 362.297px 362.297px 362.297px 362.297px 362.297px 362.297px 362.297px 362.297px 362.297px 362.297px 362.297px 362.297px 362.297px 362.297px 362.297px 362.297px 362.297px 362.297px 362.297px 362.297px 362.297px 362.297px 362.297px 362.297px 362.297px ">/ Cohérence de la méthodologie par</tspan> ra<tspan x="236.584px 243.164px 249.743px 256.323px 260.083px 262.903px 265.723px 272.302px 278.882px 281.382px 287.022px 293.604px 296.419px 303.001px " y="362.297px 362.297px 362.297px 362.297px 362.297px 362.297px 362.297px 362.297px 362.297px 362.297px 362.297px 362.297px 362.297px 362.297px ">pport au sujet</tspan></text>
                <text x="26.653px" y="390.497px" style="font-family:'ArialMT', 'Arial', sans-serif;font-size:11.28px;">b<tspan x="33.233px 36.053px 44.513px 52.034px 58.614px 61.428px 68.008px 70.833px 77.414px 83.994px 90.575px 97.156px 100.915px 103.735px 110.317px 113.131px 119.712px 122.53px 125.344px 131.926px 134.75px 138.509px 145.093px 151.676px 154.493px 157.309px 162.949px 169.528px 172.348px 175.163px 181.744px 188.326px 191.148px 197.729px 203.369px 209.949px 216.528px 220.288px 223.108px 232.508px 239.087px 245.667px 248.487px 255.07px 257.886px " y="390.497px 390.497px 390.497px 390.497px 390.497px 390.497px 390.497px 390.497px 390.497px 390.497px 390.497px 390.497px 390.497px 390.497px 390.497px 390.497px 390.497px 390.497px 390.497px 390.497px 390.497px 390.497px 390.497px 390.497px 390.497px 390.497px 390.497px 390.497px 390.497px 390.497px 390.497px 390.497px 390.497px 390.497px 390.497px 390.497px 390.497px 390.497px 390.497px 390.497px 390.497px 390.497px 390.497px 390.497px 390.497px ">/ Soin apporté à la réalisation expérimentale</tspan></text>
                <text x="26.653px" y="418.697px" style="font-family:'ArialMT', 'Arial', sans-serif;font-size:11.28px;">c/<tspan x="35.113px 43.573px 52.033px 58.617px 65.2px 68.016px 70.832px 73.652px 80.232px 83.052px 89.632px 91.512px 98.092px 104.671px 110.311px 116.891px " y="418.697px 418.697px 418.697px 418.697px 418.697px 418.697px 418.697px 418.697px 418.697px 418.697px 418.697px 418.697px 418.697px 418.697px 418.697px 418.697px "> Qualité d&apos;obser</tspan>va<tspan x="132.87px 135.69px 138.506px 145.09px " y="418.697px 418.697px 418.697px 418.697px ">tion</tspan></text>
                <text x="3.153px" y="441.257px" style="font-family:'Arial-BoldMT', 'Arial', sans-serif;font-weight:700;font-size:11.28px;">2<tspan x="9.735px 13.177px 26.653px 34.174px 40.758px 47.336px 50.158px 56.737px 59.559px 63.323px 69.907px 73.672px 76.494px 83.072px " y="441.257px 441.257px 441.257px 441.257px 441.257px 441.257px 441.257px 441.257px 441.257px 441.257px 441.257px 441.257px 441.257px 441.257px ">. Exploitation</tspan></text>
                <text x="26.653px" y="463.817px" style="font-family:'ArialMT', 'Arial', sans-serif;font-size:11.28px;">a<tspan x="33.233px 36.053px 44.513px 47.333px 53.913px 56.733px 63.312px 67.072px 73.652px 77.411px 83.991px 86.811px 93.391px 96.211px 99.025px 105.606px 112.188px 115.01px 121.591px 124.411px 127.231px " y="463.817px 463.817px 463.817px 463.817px 463.817px 463.817px 463.817px 463.817px 463.817px 463.817px 463.817px 463.817px 463.817px 463.817px 463.817px 463.817px 463.817px 463.817px 463.817px 463.817px 463.817px ">/ Interprétation et c</tspan>ri<tspan x="139.451px 142.271px 145.085px 151.665px 158.246px 164.827px 167.648px 174.229px 180.81px " y="463.817px 463.817px 463.817px 463.817px 463.817px 463.817px 463.817px 463.817px 463.817px ">tique des</tspan> ré<tspan x="199.925px 205.565px 212.148px 214.964px 217.784px 224.364px 227.184px 232.824px 235.644px 238.464px 242.223px 245.037px 251.618px 258.2px 264.781px 271.362px 275.119px 277.623px " y="463.817px 463.817px 463.817px 463.817px 463.817px 463.817px 463.817px 463.817px 463.817px 463.817px 463.817px 463.817px 463.817px 463.817px 463.817px 463.817px 463.817px 463.817px ">sultats; rigueur s</tspan>ci<tspan x="291.72px 298.303px 304.885px 307.705px 310.525px 313.345px 316.16px 322.742px 329.324px " y="463.817px 463.817px 463.817px 463.817px 463.817px 463.817px 463.817px 463.817px 463.817px ">entifique</tspan></text>
                <text x="26.653px" y="492.017px" style="font-family:'ArialMT', 'Arial', sans-serif;font-size:11.28px;">b<tspan x="33.233px 36.053px 44.513px 52.034px 58.613px 61.433px 64.253px 67.073px 73.653px 80.232px 86.812px 89.632px 96.212px 99.032px 104.672px 111.251px 117.831px 123.471px 126.287px 132.871px 136.63px 143.21px 146.03px 152.609px 155.429px 158.249px 164.829px 167.649px 171.409px 177.988px 184.568px 191.148px 194.907px 201.487px " y="492.017px 492.017px 492.017px 492.017px 492.017px 492.017px 492.017px 492.017px 492.017px 492.017px 492.017px 492.017px 492.017px 492.017px 492.017px 492.017px 492.017px 492.017px 492.017px 492.017px 492.017px 492.017px 492.017px 492.017px 492.017px 492.017px 492.017px 492.017px 492.017px 492.017px 492.017px 492.017px 492.017px 492.017px ">/ Aptitude à conclure et à repérer</tspan> l<tspan x="211.2px 217.783px 223.423px 225.926px 232.506px 238.146px 244.725px 251.305px 256.945px 259.765px " y="492.017px 492.017px 492.017px 492.017px 492.017px 492.017px 492.017px 492.017px 492.017px 492.017px ">es aspects</tspan> n<tspan x="275.118px 281.698px 288.278px 290.784px 294.543px 301.123px 306.763px 313.345px 316.16px 322.742px " y="492.017px 492.017px 492.017px 492.017px 492.017px 492.017px 492.017px 492.017px 492.017px 492.017px ">on résolus</tspan></text>
                <text x="3.153px" y="514.577px" style="font-family:'Arial-BoldItalicMT', 'Arial', sans-serif;font-weight:700;font-style:italic;font-size:11.28px;">C<tspan x="11.615px 15.065px 26.653px 34.174px 40.758px 47.342px 51.106px 57.69px 64.274px 70.858px 77.443px 84.027px " y="514.577px 514.577px 514.577px 514.577px 514.577px 514.577px 514.577px 514.577px 514.577px 514.577px 514.577px 514.577px ">. Soutenance</tspan></text>
                <text x="3.153px" y="531.497px" style="font-family:'Arial-BoldItalicMT', 'Arial', sans-serif;font-weight:700;font-style:italic;font-size:11.28px;">1<tspan x="9.735px 13.177px 26.653px 34.174px 40.758px 45.458px 49.222px 52.044px 58.623px 65.207px 71.791px 78.375px 84.96px 87.776px 94.36px 100.944px 103.772px 110.356px 116.94px 123.525px 127.289px 133.873px 140.457px " y="531.497px 531.497px 531.497px 531.497px 531.497px 531.497px 531.497px 531.497px 531.497px 531.497px 531.497px 531.497px 531.497px 531.497px 531.497px 531.497px 531.497px 531.497px 531.497px 531.497px 531.497px 531.497px 531.497px ">. Pertinence du contenu</tspan></text>
                <text x="26.653px" y="554.057px" style="font-family:'ArialMT', 'Arial', sans-serif;font-size:11.28px;">a<tspan x="33.233px 36.053px 44.513px 52.034px 54.854px 58.613px 65.193px 70.833px 73.653px 80.232px 83.992px 90.574px 93.392px 99.973px 106.555px 109.371px 112.185px 114.066px 120.645px 126.285px 132.865px 139.444px 145.084px 151.664px 154.49px 161.069px 163.889px 166.709px 176.109px 178.929px 184.569px 191.149px 193.969px 200.548px 207.128px 209.948px 216.528px 222.168px 224.982px 231.563px 238.145px 244.726px 250.366px 256.948px 259.766px 266.348px 272.929px 275.745px 278.56px 280.44px 287.02px " y="554.057px 554.057px 554.057px 554.057px 554.057px 554.057px 554.057px 554.057px 554.057px 554.057px 554.057px 554.057px 554.057px 554.057px 554.057px 554.057px 554.057px 554.057px 554.057px 554.057px 554.057px 554.057px 554.057px 554.057px 554.057px 554.057px 554.057px 554.057px 554.057px 554.057px 554.057px 554.057px 554.057px 554.057px 554.057px 554.057px 554.057px 554.057px 554.057px 554.057px 554.057px 554.057px 554.057px 554.057px 554.057px 554.057px 554.057px 554.057px 554.057px 554.057px 554.057px ">/ Structure de l&apos;exposé et mise en évidence de l&apos;es</tspan>se<tspan x="304.879px 311.459px 314.279px 317.095px 323.678px " y="554.057px 554.057px 554.057px 554.057px 554.057px ">ntiel</tspan></text>
                <text x="26.653px" y="582.257px" style="font-family:'ArialMT', 'Arial', sans-serif;font-size:11.28px;">b<tspan x="33.233px 36.053px 44.513px 52.969px 59.553px 68.952px 75.532px 79.292px 85.871px 92.451px 99.031px 105.61px 111.25px 114.064px 120.645px 127.226px 130.049px 136.631px 143.212px " y="582.257px 582.257px 582.257px 582.257px 582.257px 582.257px 582.257px 582.257px 582.257px 582.257px 582.257px 582.257px 582.257px 582.257px 582.257px 582.257px 582.257px 582.257px 582.257px ">/ Compréhension des</tspan> n<tspan x="158.565px 165.145px 167.965px 170.78px 177.362px 183.944px 189.584px 192.404px 195.224px 201.804px 207.444px 214.023px 220.603px 223.423px 230.003px 236.582px 242.222px 248.802px 254.442px 257.262px 260.082px 265.722px 272.304px 275.119px 281.701px 284.521px 287.336px 293.918px 300.5px 306.14px 308.643px 315.223px 320.863px 327.443px 334.022px 339.662px 346.242px 352.822px " y="582.257px 582.257px 582.257px 582.257px 582.257px 582.257px 582.257px 582.257px 582.257px 582.257px 582.257px 582.257px 582.257px 582.257px 582.257px 582.257px 582.257px 582.257px 582.257px 582.257px 582.257px 582.257px 582.257px 582.257px 582.257px 582.257px 582.257px 582.257px 582.257px 582.257px 582.257px 582.257px 582.257px 582.257px 582.257px 582.257px 582.257px 582.257px ">otions, hypothèses, solutions avancées</tspan></text>
                <text x="26.653px" y="610.457px" style="font-family:'ArialMT', 'Arial', sans-serif;font-size:11.28px;">c/<tspan x="35.113px 43.573px 49.213px 55.793px 61.433px 64.253px 67.073px 69.893px 72.713px 78.353px 84.932px 87.752px 90.566px 97.148px 103.729px 106.552px 113.133px 119.714px 122.531px 125.345px 131.926px 134.751px 141.332px 147.913px 157.313px 163.892px " y="610.457px 610.457px 610.457px 610.457px 610.457px 610.457px 610.457px 610.457px 610.457px 610.457px 610.457px 610.457px 610.457px 610.457px 610.457px 610.457px 610.457px 610.457px 610.457px 610.457px 610.457px 610.457px 610.457px 610.457px 610.457px 610.457px "> Justification de la démar</tspan>ch<tspan x="179.872px 186.451px 189.268px 195.848px 202.427px 209.007px 215.586px 218.406px 224.986px " y="610.457px 610.457px 610.457px 610.457px 610.457px 610.457px 610.457px 610.457px 610.457px ">e adoptée</tspan></text>
                <text x="26.653px" y="638.657px" style="font-family:'ArialMT', 'Arial', sans-serif;font-size:11.28px;">d<tspan x="33.233px 36.053px 44.513px " y="638.657px 638.657px 638.657px ">/ P</tspan>ré<tspan x="62.373px 68.013px 70.833px 76.473px 79.287px 85.868px 92.449px 95.272px 101.853px 108.434px " y="638.657px 638.657px 638.657px 638.657px 638.657px 638.657px 638.657px 638.657px 638.657px 638.657px ">cision des</tspan> ré<tspan x="127.549px 134.129px 140.708px 147.288px 152.928px 159.508px " y="638.657px 638.657px 638.657px 638.657px 638.657px 638.657px ">ponses</tspan></text>
                <text x="3.153px" y="661.217px" style="font-family:'Arial-BoldItalicMT', 'Arial', sans-serif;font-weight:700;font-style:italic;font-size:11.28px;">2<tspan x="9.735px 13.177px 26.653px 33.233px 39.812px 44.508px 54.844px 61.424px 64.247px 70.827px 77.406px 80.23px 83.053px 89.633px 92.456px 99.036px 101.859px 108.439px 115.018px 121.598px 128.178px 134.757px 137.581px 144.16px " y="661.217px 661.217px 661.217px 661.217px 661.217px 661.217px 661.217px 661.217px 661.217px 661.217px 661.217px 661.217px 661.217px 661.217px 661.217px 661.217px 661.217px 661.217px 661.217px 661.217px 661.217px 661.217px 661.217px 661.217px ">. Forme de la discussion</tspan></text>
                <text x="26.653px" y="683.777px" style="font-family:'ArialMT', 'Arial', sans-serif;font-size:11.28px;">a<tspan x="33.233px 36.053px 44.513px 52.034px 58.613px 61.433px 64.253px 67.073px 73.653px 80.232px 86.812px 89.632px 96.212px 102.791px 105.611px 112.191px 118.771px 125.35px 131.93px 134.75px 137.57px 144.149px 150.729px 157.309px 162.949px 165.769px 168.584px 175.166px 181.748px " y="683.777px 683.777px 683.777px 683.777px 683.777px 683.777px 683.777px 683.777px 683.777px 683.777px 683.777px 683.777px 683.777px 683.777px 683.777px 683.777px 683.777px 683.777px 683.777px 683.777px 683.777px 683.777px 683.777px 683.777px 683.777px 683.777px 683.777px 683.777px 683.777px ">/ Aptitude au débat questions</tspan> /<tspan x="193.342px 196.162px 199.922px 206.501px 213.081px 219.66px 226.24px 231.88px 238.46px " y="683.777px 683.777px 683.777px 683.777px 683.777px 683.777px 683.777px 683.777px 683.777px "> réponses</tspan></text>
                <text x="26.653px" y="705.397px" style="font-family:'ArialMT', 'Arial', sans-serif;font-size:11.28px;">b<tspan x="33.233px 36.053px 44.513px 52.971px 55.788px 62.373px 66.132px 68.952px 75.534px 78.352px 84.934px 91.515px 94.331px 97.146px 99.026px 105.606px 111.246px 117.825px 121.585px 128.164px " y="705.397px 705.397px 705.397px 705.397px 705.397px 705.397px 705.397px 705.397px 705.397px 705.397px 705.397px 705.397px 705.397px 705.397px 705.397px 705.397px 705.397px 705.397px 705.397px 705.397px ">/ Clarté de l&apos;expres</tspan>si<tspan x="142.259px 148.841px 155.424px 158.244px 161.064px 167.643px 173.283px 179.863px 186.443px 193.022px 195.848px 202.428px 204.308px 210.888px 217.467px 220.287px 225.927px 232.507px 238.147px 244.729px 251.311px 257.893px 260.708px 267.29px 270.105px 273.865px 280.445px 283.265px 289.844px 296.424px 303.003px 309.583px 316.163px 322.742px 325.562px " y="705.397px 705.397px 705.397px 705.397px 705.397px 705.397px 705.397px 705.397px 705.397px 705.397px 705.397px 705.397px 705.397px 705.397px 705.397px 705.397px 705.397px 705.397px 705.397px 705.397px 705.397px 705.397px 705.397px 705.397px 705.397px 705.397px 705.397px 705.397px 705.397px 705.397px 705.397px 705.397px 705.397px 705.397px 705.397px ">on, usage d&apos;un vocabulaire adéquat,</tspan></text>
                <text x="26.653px" y="719.497px" style="font-family:'ArialMT', 'Arial', sans-serif;font-size:11.28px;">a<tspan x="33.237px 36.053px 41.693px 48.272px 54.852px " y="719.497px 719.497px 719.497px 719.497px 719.497px ">isanc</tspan>e</text>
                <text x="26.653px" y="740.177px" style="font-family:'ArialMT', 'Arial', sans-serif;font-size:11.28px;">c/<tspan x="35.113px 43.573px 52.029px 58.613px 61.433px 64.249px 70.832px 76.472px 79.287px 85.869px 92.452px 95.272px " y="740.177px 740.177px 740.177px 740.177px 740.177px 740.177px 740.177px 740.177px 740.177px 740.177px 740.177px 740.177px "> Réflexion c</tspan>ri<tspan x="107.491px 110.311px 113.126px 119.707px 126.289px 132.87px 135.69px 141.33px 147.91px " y="740.177px 740.177px 740.177px 740.177px 740.177px 740.177px 740.177px 740.177px 740.177px ">tique sur</tspan> l<tspan x="157.622px 164.204px 166.709px 173.291px 177.051px 183.631px 189.271px 195.85px " y="740.177px 740.177px 740.177px 740.177px 740.177px 740.177px 740.177px 740.177px ">e proces</tspan>su<tspan x="213.71px " y="740.177px ">s</tspan> e<tspan x="229.063px 231.883px 234.703px 237.519px 244.103px 246.606px 250.366px 256.946px 262.586px 269.169px 271.985px 274.805px 281.385px 284.205px 287.025px 293.605px 300.184px 303.004px 305.824px 309.584px 316.163px 321.803px 328.387px 331.203px " y="740.177px 740.177px 740.177px 740.177px 740.177px 740.177px 740.177px 740.177px 740.177px 740.177px 740.177px 740.177px 740.177px 740.177px 740.177px 740.177px 740.177px 740.177px 740.177px 740.177px 740.177px 740.177px 740.177px 740.177px ">t le résultat de travail</tspan></text>
                <text x="26.653px" y="768.377px" style="font-family:'ArialMT', 'Arial', sans-serif;font-size:11.28px;">d<tspan x="33.233px 36.053px 44.513px 52.034px 54.854px 57.674px 60.494px 64.253px 70.833px 76.473px 83.055px 85.87px 88.685px 91.512px 98.095px 104.677px 107.492px 114.074px 117.834px 124.413px 130.993px 137.572px 144.152px 146.969px 149.789px 152.609px 159.189px 165.769px 168.589px 171.409px 174.229px 180.81px 187.391px 193.972px 196.788px 203.369px 206.187px 209.001px 210.881px 217.461px 223.101px 229.681px 236.26px 239.08px 245.66px 248.486px 255.066px 257.886px 260.706px 267.287px 273.868px 276.685px 283.266px 286.08px 292.662px 295.476px 302.057px 308.638px 315.22px " y="768.377px 768.377px 768.377px 768.377px 768.377px 768.377px 768.377px 768.377px 768.377px 768.377px 768.377px 768.377px 768.377px 768.377px 768.377px 768.377px 768.377px 768.377px 768.377px 768.377px 768.377px 768.377px 768.377px 768.377px 768.377px 768.377px 768.377px 768.377px 768.377px 768.377px 768.377px 768.377px 768.377px 768.377px 768.377px 768.377px 768.377px 768.377px 768.377px 768.377px 768.377px 768.377px 768.377px 768.377px 768.377px 768.377px 768.377px 768.377px 768.377px 768.377px 768.377px 768.377px 768.377px 768.377px 768.377px 768.377px 768.377px 768.377px 768.377px ">/ Si travail de groupe : aptitude à l&apos;écoute et au dialogue</tspan></text>
            </g>
            <g transform="matrix(1,0,0,1,-33.5068,-309.453)">
                <rect x="434.28" y="310.79" width="0.94" height="501.96"/>
            </g>
            <g transform="matrix(1,0,0,1,-33.5068,-309.453)">
                <rect x="458.72" y="310.79" width="0.94" height="501.96"/>
            </g>
            <g transform="matrix(1,0,0,1,-33.5068,-309.453)">
                <rect x="485.04" y="310.79" width="0.94" height="501.96"/>
            </g>
            <g transform="matrix(1,0,0,1,-33.5068,-309.453)">
                <rect x="510.42" y="310.79" width="0.94" height="501.96"/>
            </g>
            <g transform="matrix(1,0,0,1,-33.5068,-309.453)">
                <rect x="534.86" y="310.79" width="0.94" height="501.96"/>
            </g>
        </g>
    </g>
    <g transform="matrix(1,0,0,1,-33.5068,-34.033)">
        <rect x="33.84" y="34.43" width="0.94" height="779.26"/>
    </g>
    <g transform="matrix(1,0,0,1,-33.5068,-33.093)">
        <rect x="403.26" y="34.43" width="0.94" height="778.32"/>
    </g>
    <g transform="matrix(1,0,0,1,-33.5068,485.787)">
        <rect x="434.28" y="34.43" width="0.94" height="259.44"/>
    </g>
    <g transform="matrix(1,0,0,1,-33.5068,485.787)">
        <rect x="458.72" y="34.43" width="0.94" height="259.44"/>
    </g>
    <g transform="matrix(1,0,0,1,-33.5068,485.787)">
        <rect x="485.04" y="34.43" width="0.94" height="259.44"/>
    </g>
    <g transform="matrix(1,0,0,1,-33.5068,485.787)">
        <rect x="510.42" y="34.43" width="0.94" height="259.44"/>
    </g>
    <g transform="matrix(1,0,0,1,-33.5068,485.787)">
        <rect x="534.86" y="34.43" width="0.94" height="259.44"/>
    </g>
    <g transform="matrix(1,0,0,1,-33.5068,-33.093)">
        <rect x="559.3" y="34.43" width="0.94" height="778.32"/>
    </g>
    <g transform="matrix(1,0,0,1,-33.5068,-16.173)">
        <rect x="57.34" y="34.43" width="0.94" height="761.4"/>
    </g>
    <g transform="matrix(1,0,0,1,-33.5068,-812.353)">
        <rect x="34.78" y="812.75" width="525.46" height="0.94"/>
    </g>
    <g transform="matrix(1,0,0,1,-33.5068,-778.513)">
        <rect x="34.78" y="795.83" width="525.46" height="0.94"/>
    </g>
    <g transform="matrix(1,0,0,1,-33.5068,-744.673)">
        <rect x="34.78" y="778.91" width="525.46" height="0.94"/>
    </g>
    <g transform="matrix(1,0,0,1,-33.5068,-688.273)">
        <rect x="58.28" y="750.71" width="501.96" height="0.94"/>
    </g>
    <g transform="matrix(1,0,0,1,-33.5068,-631.873)">
        <rect x="58.28" y="722.51" width="501.96" height="0.94"/>
    </g>
    <g transform="matrix(1,0,0,1,-33.5068,-575.473)">
        <rect x="34.78" y="694.31" width="525.46" height="0.94"/>
    </g>
    <g transform="matrix(1,0,0,1,-33.5068,-541.633)">
        <rect x="34.78" y="677.39" width="525.46" height="0.94"/>
    </g>
    <g transform="matrix(1,0,0,1,-33.5068,-507.793)">
        <rect x="34.78" y="660.47" width="525.46" height="0.94"/>
    </g>
    <g transform="matrix(1,0,0,1,-33.5068,-451.393)">
        <rect x="58.28" y="632.27" width="501.96" height="0.94"/>
    </g>
    <g transform="matrix(1,0,0,1,-33.5068,-394.993)">
        <rect x="58.28" y="604.07" width="501.96" height="0.94"/>
    </g>
    <g transform="matrix(1,0,0,1,-33.5068,-338.593)">
        <rect x="34.78" y="575.87" width="525.46" height="0.94"/>
    </g>
    <g transform="matrix(1,0,0,1,-33.5068,-304.753)">
        <rect x="34.78" y="558.95" width="525.46" height="0.94"/>
    </g>
    <g transform="matrix(1,0,0,1,-33.5068,-248.353)">
        <rect x="58.28" y="530.75" width="501.96" height="0.94"/>
    </g>
    <g transform="matrix(1,0,0,1,-33.5068,-191.953)">
        <rect x="34.78" y="502.55" width="525.46" height="0.94"/>
    </g>
    <g transform="matrix(1,0,0,1,-33.5068,-158.113)">
        <rect x="34.78" y="485.63" width="525.46" height="0.94"/>
    </g>
    <g transform="matrix(1,0,0,1,-33.5068,-124.273)">
        <rect x="34.78" y="468.71" width="525.46" height="0.94"/>
    </g>
    <g transform="matrix(1,0,0,1,-33.5068,-67.873)">
        <rect x="58.28" y="440.51" width="501.96" height="0.94"/>
    </g>
    <g transform="matrix(1,0,0,1,-33.5068,-11.473)">
        <rect x="58.28" y="412.31" width="501.96" height="0.94"/>
    </g>
    <g transform="matrix(1,0,0,1,-33.5068,44.927)">
        <rect x="34.78" y="384.11" width="525.46" height="0.94"/>
    </g>
    <g transform="matrix(1,0,0,1,-33.5068,78.767)">
        <rect x="34.78" y="367.19" width="525.46" height="0.94"/>
    </g>
    <g transform="matrix(1,0,0,1,-33.5068,135.167)">
        <rect x="58.28" y="338.99" width="501.96" height="0.94"/>
    </g>
    <g transform="matrix(1,0,0,1,-33.5068,191.567)">
        <rect x="34.78" y="310.79" width="525.46" height="0.94"/>
    </g>
    <g transform="matrix(1,0,0,1,-33.5068,225.407)">
        <rect x="34.78" y="293.87" width="525.46" height="0.94"/>
    </g>
    <g transform="matrix(1,0,0,1,-33.5068,259.247)">
        <rect x="34.78" y="276.95" width="525.46" height="0.94"/>
    </g>
    <g transform="matrix(1,0,0,1,-33.5068,315.647)">
        <rect x="58.28" y="248.75" width="501.96" height="0.94"/>
    </g>
    <g transform="matrix(1,0,0,1,-33.5068,372.047)">
        <rect x="58.28" y="220.55" width="501.96" height="0.94"/>
    </g>
    <g transform="matrix(1,0,0,1,-33.5068,428.447)">
        <rect x="58.28" y="192.35" width="501.96" height="0.94"/>
    </g>
    <g transform="matrix(1,0,0,1,-33.5068,484.847)">
        <rect x="34.78" y="164.15" width="525.46" height="0.94"/>
    </g>
    <g transform="matrix(1,0,0,1,-33.5068,518.687)">
        <rect x="34.78" y="147.23" width="525.46" height="0.94"/>
    </g>
    <g transform="matrix(1,0,0,1,-33.5068,575.087)">
        <rect x="58.28" y="119.03" width="501.96" height="0.94"/>
    </g>
    <g transform="matrix(1,0,0,1,-33.5068,631.487)">
        <rect x="58.28" y="90.83" width="501.96" height="0.94"/>
    </g>
    <g transform="matrix(1,0,0,1,-33.5068,687.887)">
        <rect x="58.28" y="62.63" width="501.96" height="0.94"/>
    </g>
    <g transform="matrix(1,0,0,1,-33.5068,744.287)">
        <rect x="34.78" y="34.43" width="525.46" height="0.94"/>
    </g>
</svg>
