<?xml version="1.0" encoding="UTF-8" standalone="no"?>
<!DOCTYPE svg PUBLIC "-//W3C//DTD SVG 1.1//EN" "http://www.w3.org/Graphics/SVG/1.1/DTD/svg11.dtd">
<svg width="100%" height="100%" viewBox="0 0 527 783" version="1.1" xmlns="http://www.w3.org/2000/svg" xmlns:xlink="http://www.w3.org/1999/xlink" xml:space="preserve" xmlns:serif="http://www.serif.com/" style="fill-rule:evenodd;clip-rule:evenodd;stroke-linejoin:round;stroke-miterlimit:2;">
    <g transform="matrix(0.939518,0,0,0.998975,9.72498,0.801188)">
        <rect x="-10.351" y="-0.802" width="560.642" height="782.808" style="fill:white;"/>
    </g>
    <g>
        <clipPath id="_clip1">
            <rect x="1.273" y="-0.802" width="525.46" height="770.8" clip-rule="nonzero"/>
        </clipPath>
        <g clip-path="url(#_clip1)">
            <g transform="matrix(1,0,0,1,-33.5068,-738.352)">
                <rect x="33.84" y="736.61" width="526.4" height="77.08" style="fill:rgb(192,192,255);"/>
            </g>
            <g transform="matrix(1,0,0,1,-33.5068,-616.152)">
                <clipPath id="_clip2">
                    <rect x="34.78" y="615.35" width="525.46" height="770.8" clip-rule="nonzero"/>
                </clipPath>
                <g clip-path="url(#_clip2)">
                    <rect x="33.84" y="690.55" width="526.4" height="47" style="fill:white;"/>
                </g>
            </g>
            <g transform="matrix(1,0,0,1,-33.5068,-547.532)">
                <clipPath id="_clip3">
                    <rect x="34.78" y="546.73" width="525.46" height="770.8" clip-rule="nonzero"/>
                </clipPath>
                <g clip-path="url(#_clip3)">
                    <rect x="33.84" y="667.99" width="24.44" height="23.5" style="fill:white;"/>
                </g>
            </g>
            <g transform="matrix(1,0,0,1,-33.5068,-547.532)">
                <rect x="403.26" y="667.99" width="156.98" height="23.5" style="fill:white;"/>
            </g>
            <g transform="matrix(1,0,0,1,-33.5068,-508.052)">
                <clipPath id="_clip4">
                    <rect x="34.78" y="507.25" width="525.46" height="770.8" clip-rule="nonzero"/>
                </clipPath>
                <g clip-path="url(#_clip4)">
                    <rect x="33.84" y="651.07" width="526.4" height="17.86" style="fill:rgb(204,255,204);"/>
                </g>
            </g>
            <g transform="matrix(1,0,0,1,-33.5068,-226.052)">
                <clipPath id="_clip5">
                    <rect x="34.78" y="225.25" width="525.46" height="770.8" clip-rule="nonzero"/>
                </clipPath>
                <g clip-path="url(#_clip5)">
                    <rect x="33.84" y="510.07" width="526.4" height="17.86" style="fill:rgb(204,255,204);"/>
                </g>
            </g>
            <g transform="matrix(1,0,0,1,-33.5068,-192.212)">
                <clipPath id="_clip6">
                    <rect x="34.78" y="191.41" width="525.46" height="770.8" clip-rule="nonzero"/>
                </clipPath>
                <g clip-path="url(#_clip6)">
                    <rect x="33.84" y="493.15" width="526.4" height="17.86" style="fill:rgb(255,255,153);"/>
                </g>
            </g>
            <g transform="matrix(1,0,0,1,-33.5068,67.228)">
                <clipPath id="_clip7">
                    <rect x="34.78" y="-68.03" width="525.46" height="770.8" clip-rule="nonzero"/>
                </clipPath>
                <g clip-path="url(#_clip7)">
                    <rect x="33.84" y="363.43" width="526.4" height="17.86" style="fill:rgb(255,255,153);"/>
                </g>
            </g>
            <g transform="matrix(1,0,0,1,-33.5068,270.268)">
                <clipPath id="_clip8">
                    <rect x="34.78" y="-271.07" width="525.46" height="770.8" clip-rule="nonzero"/>
                </clipPath>
                <g clip-path="url(#_clip8)">
                    <rect x="33.84" y="261.91" width="526.4" height="17.86" style="fill:rgb(255,255,153);"/>
                </g>
            </g>
            <g transform="matrix(1,0,0,1,-33.5068,529.708)">
                <clipPath id="_clip9">
                    <rect x="34.78" y="-530.51" width="525.46" height="770.8" clip-rule="nonzero"/>
                </clipPath>
                <g clip-path="url(#_clip9)">
                    <rect x="33.84" y="132.19" width="526.4" height="17.86" style="fill:rgb(204,255,204);"/>
                </g>
            </g>
            <g transform="matrix(1,0,0,1,-33.5068,563.548)">
                <clipPath id="_clip10">
                    <rect x="34.78" y="-564.35" width="525.46" height="770.8" clip-rule="nonzero"/>
                </clipPath>
                <g clip-path="url(#_clip10)">
                    <rect x="33.84" y="115.27" width="526.4" height="17.86" style="fill:rgb(252,213,180);"/>
                </g>
            </g>
            <g transform="matrix(1,0,0,1,-33.5068,597.388)">
                <clipPath id="_clip11">
                    <rect x="34.78" y="-598.19" width="525.46" height="770.8" clip-rule="nonzero"/>
                </clipPath>
                <g clip-path="url(#_clip11)">
                    <rect x="33.84" y="98.35" width="526.4" height="17.86" style="fill:rgb(255,255,153);"/>
                </g>
            </g>
            <g>
                <text x="3.153px" y="135.498px" style="font-family:'Arial-BoldMT', 'Arial', sans-serif;font-weight:700;font-size:11.28px;">Me<tspan x="19.132px 25.712px 29.472px 36.051px 40.747px 286.381px 293.897px 300.476px 307.056px 313.635px 318.331px " y="135.498px 135.498px 135.498px 135.498px 135.498px 135.498px 135.498px 135.498px 135.498px 135.498px 135.498px ">ntor Expert</tspan></text>
                <text x="26.653px" y="155.238px" style="font-family:'Arial-BoldItalicMT', 'Arial', sans-serif;font-weight:700;font-style:italic;font-size:11.28px;">R<tspan x="35.109px 41.692px 52.031px 58.614px 63.313px 69.889px 76.466px 83.042px 89.618px 92.438px 99.014px 103.711px 110.291px 116.871px 119.691px 126.267px 132.843px 135.663px 142.239px " y="155.238px 155.238px 155.238px 155.238px 155.238px 155.238px 155.238px 155.238px 155.238px 155.238px 155.238px 155.238px 155.238px 155.238px 155.238px 155.238px 155.238px 155.238px 155.238px ">emarques préalables</tspan></text>
            </g>
            <text x="3.153px" y="296.238px" style="font-family:'Arial-BoldItalicMT', 'Arial', sans-serif;font-weight:700;font-style:italic;font-size:11.28px;">A<tspan x="11.613px 14.433px 26.653px 35.113px 39.817px 42.637px 46.393px 52.972px 57.668px 64.247px 70.826px 73.646px 80.222px 86.798px 93.374px 99.954px 104.651px 111.231px 117.807px " y="296.238px 296.238px 296.238px 296.238px 296.238px 296.238px 296.238px 296.238px 296.238px 296.238px 296.238px 296.238px 296.238px 296.238px 296.238px 296.238px 296.238px 296.238px 296.238px ">. Critères généraux</tspan></text>
            <text x="372.573px" y="296.238px" style="font-family:'Arial-BoldMT', 'Arial', sans-serif;font-weight:700;font-size:11.28px;">T<tspan x="379.15px 381.971px 388.548px 394.509px 405.473px 408.294px 414.871px 420.832px 429.913px 437.434px 444.018px 447.771px 455.293px 462.813px 469.398px 473.151px 485.373px 493.517px 506.993px 513.573px " y="296.238px 296.238px 296.238px 296.238px 296.238px 296.238px 296.238px 296.238px 296.238px 296.238px 296.238px 296.238px 296.238px 296.238px 296.238px 296.238px 296.238px 296.238px 296.238px 296.238px ">Ins Ins Suf Sat B TB</tspan></text>
            <g>
                <text x="3.153px" y="313.158px" style="font-family:'Arial-BoldMT', 'Arial', sans-serif;font-weight:700;font-size:11.28px;">1<tspan x="9.735px 13.177px 26.653px 34.174px 36.99px 43.574px 50.158px 56.743px 61.443px 68.027px 71.791px 74.613px 81.192px " y="313.158px 313.158px 313.158px 313.158px 313.158px 313.158px 313.158px 313.158px 313.158px 313.158px 313.158px 313.158px 313.158px ">. Elaboration</tspan></text>
                <text x="26.653px" y="329.138px" style="font-family:'ArialMT', 'Arial', sans-serif;font-size:11.28px;">a<tspan x="33.233px 36.053px 44.513px 52.969px 59.553px 65.193px 71.772px 78.352px 83.992px 86.812px 89.632px 96.212px 102.791px " y="329.138px 329.138px 329.138px 329.138px 329.138px 329.138px 329.138px 329.138px 329.138px 329.138px 329.138px 329.138px 329.138px ">/ Respect des</tspan> p<tspan x="118.145px 121.905px 128.484px 134.124px 140.704px 147.283px 153.863px 157.623px 164.202px 169.842px 172.348px 178.928px 181.748px 184.568px 191.148px 197.727px " y="329.138px 329.138px 329.138px 329.138px 329.138px 329.138px 329.138px 329.138px 329.138px 329.138px 329.138px 329.138px 329.138px 329.138px 329.138px 329.138px ">rocédures et des</tspan> d<tspan x="213.084px 219.667px 222.482px 229.065px 231.88px 237.52px 240.34px 243.16px 249.74px 256.319px 260.079px 262.899px 269.478px 276.058px 282.638px 286.397px 289.214px 295.797px " y="329.138px 329.138px 329.138px 329.138px 329.138px 329.138px 329.138px 329.138px 329.138px 329.138px 329.138px 329.138px 329.138px 329.138px 329.138px 329.138px 329.138px 329.138px ">élais, partenariat</tspan></text>
                <text x="43.573px" y="343.238px" style="font-family:'ArialMT', 'Arial', sans-serif;font-size:11.28px;">a<tspan x="50.153px 55.793px 62.372px " y="343.238px 343.238px 343.238px ">vec</tspan> l<tspan x="73.963px 80.546px 83.052px 92.452px 99.031px 105.611px 108.431px 115.011px " y="343.238px 343.238px 343.238px 343.238px 343.238px 343.238px 343.238px 343.238px ">e mentor</tspan></text>
                <text x="26.653px" y="363.918px" style="font-family:'ArialMT', 'Arial', sans-serif;font-size:11.28px;">b<tspan x="33.233px 36.053px 44.513px 52.034px 58.613px 65.193px 71.772px 78.352px 84.932px 94.331px 100.911px 107.491px 110.311px 113.131px 119.71px 126.29px " y="363.918px 363.918px 363.918px 363.918px 363.918px 363.918px 363.918px 363.918px 363.918px 363.918px 363.918px 363.918px 363.918px 363.918px 363.918px 363.918px ">/ Engagement per</tspan>so<tspan x="142.269px 148.849px 155.428px 162.008px " y="363.918px 363.918px 363.918px 363.918px ">nnel</tspan></text>
                <text x="26.653px" y="392.118px" style="font-family:'ArialMT', 'Arial', sans-serif;font-size:11.28px;">c/<tspan x="35.113px 43.573px 52.029px 58.613px 68.012px 74.592px " y="392.118px 392.118px 392.118px 392.118px 392.118px 392.118px "> Démar</tspan>ch<tspan x="90.572px 97.152px 99.971px 106.551px 109.364px 115.945px 122.525px 125.35px 131.93px 138.511px 145.091px 151.671px 154.491px 161.071px 167.651px 170.468px 177.047px 179.867px 182.687px 189.267px 195.846px 198.666px 205.246px 211.826px 218.405px 221.225px 224.045px 229.685px 232.505px 235.325px 241.905px 244.725px 251.305px 257.884px 260.704px 263.524px 267.284px 273.863px 279.503px 286.087px 288.903px " y="392.118px 392.118px 392.118px 392.118px 392.118px 392.118px 392.118px 392.118px 392.118px 392.118px 392.118px 392.118px 392.118px 392.118px 392.118px 392.118px 392.118px 392.118px 392.118px 392.118px 392.118px 392.118px 392.118px 392.118px 392.118px 392.118px 392.118px 392.118px 392.118px 392.118px 392.118px 392.118px 392.118px 392.118px 392.118px 392.118px 392.118px 392.118px 392.118px 392.118px 392.118px ">e bien adaptée et authenticité du travail</tspan></text>
                <text x="26.653px" y="420.318px" style="font-family:'ArialMT', 'Arial', sans-serif;font-size:11.28px;">d<tspan x="33.233px 36.053px 44.513px 52.967px 59.549px 66.131px 72.712px 76.472px 83.051px 85.871px " y="420.318px 420.318px 420.318px 420.318px 420.318px 420.318px 420.318px 420.318px 420.318px 420.318px ">/ Regard c</tspan>ri<tspan x="98.091px 100.911px 103.725px 110.306px 116.887px 123.468px 126.29px 132.871px 135.691px 138.511px 144.151px 150.731px " y="420.318px 420.318px 420.318px 420.318px 420.318px 420.318px 420.318px 420.318px 420.318px 420.318px 420.318px 420.318px ">tique et cor</tspan>re<tspan x="164.829px 170.469px 173.289px 176.104px 182.687px 189.269px " y="420.318px 420.318px 420.318px 420.318px 420.318px 420.318px ">ctions</tspan></text>
                <text x="3.153px" y="442.878px" style="font-family:'Arial-BoldMT', 'Arial', sans-serif;font-weight:700;font-size:11.28px;">2<tspan x="9.735px 13.177px 26.653px 35.113px 41.689px 48.266px 51.086px 53.906px 57.662px 64.238px 67.058px 70.814px 77.391px 82.091px 92.431px 99.014px 101.834px 104.654px " y="442.878px 442.878px 442.878px 442.878px 442.878px 442.878px 442.878px 442.878px 442.878px 442.878px 442.878px 442.878px 442.878px 442.878px 442.878px 442.878px 442.878px 442.878px ">. Qualité formelle</tspan></text>
                <text x="26.653px" y="465.438px" style="font-family:'ArialMT', 'Arial', sans-serif;font-size:11.28px;">a<tspan x="33.233px 36.053px 44.513px " y="465.438px 465.438px 465.438px ">/ P</tspan>ré<tspan x="62.373px 68.013px 74.592px 81.172px 83.992px 90.572px 93.392px 96.205px 102.786px 109.367px 112.191px 118.772px 125.352px 131.933px 138.514px 142.273px 148.856px 151.671px 158.253px 161.073px 163.893px 173.292px 176.112px 181.752px 188.332px 191.148px 197.727px 204.307px 207.127px 213.706px 220.286px 226.866px " y="465.438px 465.438px 465.438px 465.438px 465.438px 465.438px 465.438px 465.438px 465.438px 465.438px 465.438px 465.438px 465.438px 465.438px 465.438px 465.438px 465.438px 465.438px 465.438px 465.438px 465.438px 465.438px 465.438px 465.438px 465.438px 465.438px 465.438px 465.438px 465.438px 465.438px 465.438px 465.438px ">sentation générale, mise en page</tspan></text>
                <text x="26.653px" y="493.638px" style="font-family:'ArialMT', 'Arial', sans-serif;font-size:11.28px;">b<tspan x="33.233px 36.053px 44.513px 52.969px 59.553px 65.193px 71.772px 78.352px 83.992px 86.812px 89.632px 96.212px 102.791px " y="493.638px 493.638px 493.638px 493.638px 493.638px 493.638px 493.638px 493.638px 493.638px 493.638px 493.638px 493.638px 493.638px ">/ Respect des</tspan> co<tspan x="123.785px 130.365px 136.005px 138.819px 145.4px 151.982px 158.563px 164.205px 166.709px 170.467px 173.281px 179.862px 186.442px 193.023px 199.604px 206.184px 212.765px 216.525px 219.345px 222.165px 228.748px 231.563px 238.146px 240.962px 243.777px 250.36px 256.943px 260.703px 267.284px 273.865px 280.446px 283.26px 289.841px 292.661px 295.481px 301.121px 303.941px 306.761px 313.341px 316.161px 318.976px 325.558px 332.14px 337.78px 340.6px 343.42px " y="493.638px 493.638px 493.638px 493.638px 493.638px 493.638px 493.638px 493.638px 493.638px 493.638px 493.638px 493.638px 493.638px 493.638px 493.638px 493.638px 493.638px 493.638px 493.638px 493.638px 493.638px 493.638px 493.638px 493.638px 493.638px 493.638px 493.638px 493.638px 493.638px 493.638px 493.638px 493.638px 493.638px 493.638px 493.638px 493.638px 493.638px 493.638px 493.638px 493.638px 493.638px 493.638px 493.638px 493.638px 493.638px 493.638px ">nsignes (longueur, bibliographie, citations, …</tspan>)</text>
                <text x="26.653px" y="521.838px" style="font-family:'ArialMT', 'Arial', sans-serif;font-size:11.28px;">c/<tspan x="35.113px 43.573px 52.033px 58.617px 65.2px 68.016px 70.832px 73.652px 80.234px 83.052px 89.634px 96.215px 99.031px 101.846px 103.726px 110.306px " y="521.838px 521.838px 521.838px 521.838px 521.838px 521.838px 521.838px 521.838px 521.838px 521.838px 521.838px 521.838px 521.838px 521.838px 521.838px 521.838px "> Qualité de l&apos;éc</tspan>ri<tspan x="122.525px 125.345px 131.925px 135.684px 142.264px 145.09px 151.669px 154.489px 157.309px 163.892px 170.474px 173.289px 176.104px 177.984px 184.564px 190.204px 196.783px 200.543px 207.122px " y="521.838px 521.838px 521.838px 521.838px 521.838px 521.838px 521.838px 521.838px 521.838px 521.838px 521.838px 521.838px 521.838px 521.838px 521.838px 521.838px 521.838px 521.838px 521.838px ">ture et de l&apos;expres</tspan>si<tspan x="221.219px 227.802px " y="521.838px 521.838px ">on</tspan></text>
                <text x="3.153px" y="544.398px" style="font-family:'Arial-BoldItalicMT', 'Arial', sans-serif;font-weight:700;font-style:italic;font-size:11.28px;">3<tspan x="9.737px 13.181px 26.653px 35.109px 41.685px 48.262px 52.018px 58.594px 65.17px " y="544.398px 544.398px 544.398px 544.398px 544.398px 544.398px 544.398px 544.398px 544.398px ">. Contenu</tspan></text>
                <text x="26.653px" y="566.958px" style="font-family:'ArialMT', 'Arial', sans-serif;font-size:11.28px;">a<tspan x="33.233px 36.053px 44.513px 51.093px 54.852px 61.436px 64.252px 67.072px 73.652px 83.051px 89.631px 96.211px 99.031px 101.851px 108.43px 115.01px 117.83px 123.47px 130.052px 132.867px 139.449px " y="566.958px 566.958px 566.958px 566.958px 566.958px 566.958px 566.958px 566.958px 566.958px 566.958px 566.958px 566.958px 566.958px 566.958px 566.958px 566.958px 566.958px 566.958px 566.958px 566.958px 566.958px ">/ Traitement du sujet</tspan></text>
                <text x="26.653px" y="595.158px" style="font-family:'ArialMT', 'Arial', sans-serif;font-size:11.28px;">b<tspan x="33.233px 36.053px 44.513px 52.968px 55.783px 62.365px 68.947px 75.529px 82.112px " y="595.158px 595.158px 595.158px 595.158px 595.158px 595.158px 595.158px 595.158px 595.158px ">/ Rigueur</tspan> d<tspan x="95.589px 102.17px 104.671px 107.484px 114.065px 116.89px 123.471px 130.052px 139.452px 146.031px " y="595.158px 595.158px 595.158px 595.158px 595.158px 595.158px 595.158px 595.158px 595.158px 595.158px ">e la démar</tspan>ch<tspan x="162.011px " y="595.158px ">e</tspan></text>
                <text x="26.653px" y="623.358px" style="font-family:'ArialMT', 'Arial', sans-serif;font-size:11.28px;">c/<tspan x="35.113px 43.573px 51.094px 53.914px 57.673px 64.253px 69.893px 72.713px 79.292px 83.052px 89.632px 92.452px 99.031px 105.611px 108.431px 111.251px 115.011px 121.59px 127.23px 133.814px 136.63px 139.446px 142.27px 148.853px 151.673px 154.493px 161.076px 167.659px 174.242px 177.058px 179.873px 182.689px 189.272px 193.031px 199.611px 202.427px 209.007px 215.586px " y="623.358px 623.358px 623.358px 623.358px 623.358px 623.358px 623.358px 623.358px 623.358px 623.358px 623.358px 623.358px 623.358px 623.358px 623.358px 623.358px 623.358px 623.358px 623.358px 623.358px 623.358px 623.358px 623.358px 623.358px 623.358px 623.358px 623.358px 623.358px 623.358px 623.358px 623.358px 623.358px 623.358px 623.358px 623.358px 623.358px 623.358px 623.358px "> Structure du travail et équilibre des</tspan> ch<tspan x="236.582px 243.163px 249.745px 252.559px 255.379px 259.139px 265.718px " y="623.358px 623.358px 623.358px 623.358px 623.358px 623.358px 623.358px ">apitres</tspan></text>
                <text x="26.653px" y="651.558px" style="font-family:'ArialMT', 'Arial', sans-serif;font-size:11.28px;">d<tspan x="33.233px 36.053px 44.513px 52.034px 58.613px 62.373px 65.193px 68.007px 74.589px 81.17px 87.752px 93.392px 99.971px 102.791px 109.371px 112.191px 115.011px 121.591px 127.231px 133.814px 136.63px 143.214px 146.03px 148.85px 155.429px 158.249px 161.063px 167.644px 174.226px 177.049px 183.63px 190.211px " y="651.558px 651.558px 651.558px 651.558px 651.558px 651.558px 651.558px 651.558px 651.558px 651.558px 651.558px 651.558px 651.558px 651.558px 651.558px 651.558px 651.558px 651.558px 651.558px 651.558px 651.558px 651.558px 651.558px 651.558px 651.558px 651.558px 651.558px 651.558px 651.558px 651.558px 651.558px 651.558px ">/ Pertinence et exploitation des</tspan> so<tspan x="211.205px 217.784px " y="651.558px 651.558px ">ur</tspan>ce<tspan x="233.763px 239.403px 241.906px 248.486px 251.306px 254.126px 260.706px 267.285px " y="651.558px 651.558px 651.558px 651.558px 651.558px 651.558px 651.558px 651.558px ">s et des</tspan> i<tspan x="278.877px 281.695px 284.513px 291.099px 296.739px 299.559px 303.318px 309.898px 312.718px 315.533px 322.115px 328.697px " y="651.558px 651.558px 651.558px 651.558px 651.558px 651.558px 651.558px 651.558px 651.558px 651.558px 651.558px 651.558px ">llustrations</tspan></text>
                <text x="3.153px" y="674.118px" style="font-family:'Arial-BoldItalicMT', 'Arial', sans-serif;font-weight:700;font-style:italic;font-size:11.28px;">B<tspan x="11.614px 15.063px 26.653px 35.114px 39.819px 42.639px 46.395px 52.974px 57.669px 64.248px 70.828px 73.646px 80.222px 84.926px 91.502px 98.078px 102.774px 109.353px 115.932px 118.754px 125.333px 131.91px 138.486px 141.303px 147.879px 154.456px 161.032px 165.728px 172.308px 178.888px 181.708px 188.284px 194.861px 197.681px 204.257px " y="674.118px 674.118px 674.118px 674.118px 674.118px 674.118px 674.118px 674.118px 674.118px 674.118px 674.118px 674.118px 674.118px 674.118px 674.118px 674.118px 674.118px 674.118px 674.118px 674.118px 674.118px 674.118px 674.118px 674.118px 674.118px 674.118px 674.118px 674.118px 674.118px 674.118px 674.118px 674.118px 674.118px 674.118px 674.118px ">. Critères propres aux genres de TM</tspan></text>
                <text x="3.153px" y="691.038px" style="font-family:'Arial-BoldItalicMT', 'Arial', sans-serif;font-weight:700;font-style:italic;font-size:11.28px;">B<tspan x="11.613px 14.433px 21.016px 24.459px 26.653px 35.108px 39.807px 46.389px 52.972px 56.728px 59.548px 66.124px " y="691.038px 691.038px 691.038px 691.038px 691.038px 691.038px 691.038px 691.038px 691.038px 691.038px 691.038px 691.038px ">.1. Création</tspan></text>
                <text x="3.153px" y="707.958px" style="font-family:'Arial-BoldMT', 'Arial', sans-serif;font-weight:700;font-size:11.28px;">1<tspan x="9.735px 13.177px 26.653px 35.113px 39.817px 42.637px 49.213px 52.033px 58.609px 65.186px 68.006px 70.826px " y="707.958px 707.958px 707.958px 707.958px 707.958px 707.958px 707.958px 707.958px 707.958px 707.958px 707.958px 707.958px ">. Originalit</tspan>é</text>
                <text x="26.653px" y="730.518px" style="font-family:'ArialMT', 'Arial', sans-serif;font-size:11.28px;">a<tspan x="33.233px 36.053px 44.513px 52.973px 56.733px 59.55px 66.134px 68.95px 75.534px 82.118px 84.935px 87.752px 90.572px 97.151px 99.971px 106.551px 113.131px 115.951px 121.591px 128.173px 130.988px 137.57px " y="730.518px 730.518px 730.518px 730.518px 730.518px 730.518px 730.518px 730.518px 730.518px 730.518px 730.518px 730.518px 730.518px 730.518px 730.518px 730.518px 730.518px 730.518px 730.518px 730.518px 730.518px 730.518px ">/ Originalité du sujet</tspan></text>
                <text x="26.653px" y="758.718px" style="font-family:'ArialMT', 'Arial', sans-serif;font-size:11.28px;">b<tspan x="33.233px 36.053px 44.513px 52.973px 56.733px 59.55px 66.134px 68.95px 75.534px 82.118px 84.935px 87.752px 90.572px 97.151px 99.971px 106.551px 113.131px " y="758.718px 758.718px 758.718px 758.718px 758.718px 758.718px 758.718px 758.718px 758.718px 758.718px 758.718px 758.718px 758.718px 758.718px 758.718px 758.718px 758.718px ">/ Originalité des</tspan> mo<tspan x="137.885px 143.525px 150.105px 156.685px 162.325px 164.829px 171.409px 174.229px 177.049px 179.869px 182.689px 188.329px 194.908px " y="758.718px 758.718px 758.718px 758.718px 758.718px 758.718px 758.718px 758.718px 758.718px 758.718px 758.718px 758.718px 758.718px ">yens utilisés</tspan> (l<tspan x="210.257px 216.838px 223.419px 230px 236.581px 243.162px 245.982px 248.802px 258.201px 264.781px 267.601px 274.181px 277.94px 280.755px 287.337px 293.919px 296.739px 299.559px 306.139px 308.959px 314.599px 317.419px " y="758.718px 758.718px 758.718px 758.718px 758.718px 758.718px 758.718px 758.718px 758.718px 758.718px 758.718px 758.718px 758.718px 758.718px 758.718px 758.718px 758.718px 758.718px 758.718px 758.718px 758.718px 758.718px ">angue, matériau, etc.)</tspan></text>
            </g>
            <g>
                <text x="128.173px" y="33.978px" style="font-family:'Arial-BoldMT', 'Arial', sans-serif;font-weight:700;font-size:22.56px;">G<tspan x="146.034px 154.487px 161.068px 167.649px 174.229px 186.45px 192.694px 206.765px 212.421px 224.641px 236.862px 249.083px 255.663px 269.757px 281.978px 289.506px 296.086px 310.18px 324.273px 331.188px 345.281px 359.375px 366.29px 380.383px " y="33.978px 33.978px 33.978px 33.978px 33.978px 33.978px 33.978px 33.978px 33.978px 33.978px 33.978px 33.978px 33.978px 33.978px 33.978px 33.978px 33.978px 33.978px 33.978px 33.978px 33.978px 33.978px 33.978px 33.978px ">rille d&apos;évaluation du TM</tspan></text>
                <text x="145.093px" y="55.598px" style="font-family:'Arial-BoldMT', 'Arial', sans-serif;font-weight:700;font-size:16.92px;">(pour information aux élèves)</text>
            </g>
            <g>
                <text x="26.653px" y="183.438px" style="font-family:'ArialMT', 'Arial', sans-serif;font-size:11.28px;">L<tspan x="33.233px 39.812px 42.632px 49.212px 52.972px 59.551px 65.191px 71.771px 78.351px 81.171px 87.75px 90.57px 97.15px 100.909px 103.726px 106.543px 109.36px 115.944px 118.769px 125.353px 127.234px 133.813px 139.453px 146.035px 148.849px 155.431px 162.012px 164.832px 167.646px 174.228px 180.81px 183.627px 190.208px 195.848px 198.668px 201.488px 208.068px 209.948px 216.528px 223.108px 229.687px 233.447px 240.028px 242.845px 249.426px 256.007px 258.824px 261.638px 268.219px 273.859px 276.679px 280.438px 287.018px 296.418px 302.997px 309.577px 312.397px 315.217px 321.797px 328.376px 331.201px 334.021px 337.78px 344.36px 350px 356.582px 359.397px 362.212px 365.04px 371.622px 378.204px 384.786px " y="183.438px 183.438px 183.438px 183.438px 183.438px 183.438px 183.438px 183.438px 183.438px 183.438px 183.438px 183.438px 183.438px 183.438px 183.438px 183.438px 183.438px 183.438px 183.438px 183.438px 183.438px 183.438px 183.438px 183.438px 183.438px 183.438px 183.438px 183.438px 183.438px 183.438px 183.438px 183.438px 183.438px 183.438px 183.438px 183.438px 183.438px 183.438px 183.438px 183.438px 183.438px 183.438px 183.438px 183.438px 183.438px 183.438px 183.438px 183.438px 183.438px 183.438px 183.438px 183.438px 183.438px 183.438px 183.438px 183.438px 183.438px 183.438px 183.438px 183.438px 183.438px 183.438px 183.438px 183.438px 183.438px 183.438px 183.438px 183.438px 183.438px 183.438px 183.438px 183.438px ">a présente grille d&apos;évaluation est d&apos;abord un instrument de travail pour</tspan> l<tspan x="394.503px 396.383px 402.966px 405.781px 412.363px 418.003px 424.582px 427.402px 430.222px 433.039px 439.622px 442.117px 451.517px 458.096px 464.676px 467.496px 474.076px " y="183.438px 183.438px 183.438px 183.438px 183.438px 183.438px 183.438px 183.438px 183.438px 183.438px 183.438px 183.438px 183.438px 183.438px 183.438px 183.438px 183.438px ">&apos;élève, le mentor</tspan> e<tspan x="487.552px " y="183.438px ">t</tspan></text>
                <text x="26.653px" y="197.538px" style="font-family:'ArialMT', 'Arial', sans-serif;font-size:11.28px;">l<tspan x="29.473px 31.354px 37.933px 43.573px 50.153px 56.732px 60.492px 63.312px 66.132px 68.952px 75.532px 82.111px " y="197.538px 197.538px 197.538px 197.538px 197.538px 197.538px 197.538px 197.538px 197.538px 197.538px 197.538px 197.538px ">&apos;expert. Les</tspan> a<tspan x="97.465px 104.045px 110.624px 114.384px 120.963px 126.603px 129.42px 136.003px 138.823px 141.638px 148.22px 154.802px 160.442px 162.948px 168.588px 175.168px 181.748px 184.568px 187.388px 196.787px 203.369px 206.184px 212.766px 215.586px 222.166px 228.746px 235.325px 241.905px " y="197.538px 197.538px 197.538px 197.538px 197.538px 197.538px 197.538px 197.538px 197.538px 197.538px 197.538px 197.538px 197.538px 197.538px 197.538px 197.538px 197.538px 197.538px 197.538px 197.538px 197.538px 197.538px 197.538px 197.538px 197.538px 197.538px 197.538px 197.538px ">ppréciations sont maintenues</tspan> d<tspan x="257.258px 263.838px 270.418px 276.058px 278.564px 284.204px 290.783px 293.603px 296.423px 303.003px 305.823px 312.403px 316.162px 318.98px 321.798px 324.617px 331.202px 334.022px 336.842px 339.662px 346.242px 352.821px 355.641px 358.461px 365.041px 371.62px 374.44px 380.08px 386.66px 392.3px 398.88px 405.459px 412.039px 414.859px 417.679px 424.26px 430.841px 437.422px 440.238px 443.052px 449.633px 452.457px 456.217px 462.797px 468.437px 475.02px 477.836px 480.656px 487.236px 490.056px 492.876px 495.696px 498.511px 505.093px 511.675px " y="197.538px 197.538px 197.538px 197.538px 197.538px 197.538px 197.538px 197.538px 197.538px 197.538px 197.538px 197.538px 197.538px 197.538px 197.538px 197.538px 197.538px 197.538px 197.538px 197.538px 197.538px 197.538px 197.538px 197.538px 197.538px 197.538px 197.538px 197.538px 197.538px 197.538px 197.538px 197.538px 197.538px 197.538px 197.538px 197.538px 197.538px 197.538px 197.538px 197.538px 197.538px 197.538px 197.538px 197.538px 197.538px 197.538px 197.538px 197.538px 197.538px 197.538px 197.538px 197.538px 197.538px 197.538px 197.538px ">ans cette grille, tout en sachant que le résultat final</tspan></text>
                <text x="26.653px" y="211.638px" style="font-family:'ArialMT', 'Arial', sans-serif;font-size:11.28px;">f<tspan x="29.473px 36.057px 38.873px 41.693px 44.513px 47.333px 49.213px 55.795px 62.376px 65.191px 71.772px 74.592px 77.412px 83.992px 85.872px 92.452px 99.031px 105.611px 108.431px 115.011px 121.59px 124.41px 130.99px 133.81px 140.389px 146.029px 152.609px 156.369px 159.189px 168.588px 175.17px 181.751px 184.568px 191.149px 193.967px 196.781px 198.662px 205.241px 211.821px 214.641px 217.457px 224.041px " y="211.638px 211.638px 211.638px 211.638px 211.638px 211.638px 211.638px 211.638px 211.638px 211.638px 211.638px 211.638px 211.638px 211.638px 211.638px 211.638px 211.638px 211.638px 211.638px 211.638px 211.638px 211.638px 211.638px 211.638px 211.638px 211.638px 211.638px 211.638px 211.638px 211.638px 211.638px 211.638px 211.638px 211.638px 211.638px 211.638px 211.638px 211.638px 211.638px 211.638px 211.638px 211.638px ">ait l&apos;objet d&apos;une note exprimée à l&apos;entier</tspan> o<tspan x="237.518px 244.099px 246.605px 253.186px 256.005px 258.818px 265.399px 268.225px 274.805px 281.386px 290.786px 293.602px 300.185px " y="211.638px 211.638px 211.638px 211.638px 211.638px 211.638px 211.638px 211.638px 211.638px 211.638px 211.638px 211.638px 211.638px ">u à la demie.</tspan></text>
                <text x="26.653px" y="225.738px" style="font-family:'ArialMT', 'Arial', sans-serif;font-size:11.28px;">El<tspan x="36.991px 39.808px 46.393px 49.213px 52.973px 59.552px 65.192px 71.775px 78.357px 81.172px 83.992px 90.574px 93.39px 99.972px 102.791px 105.606px 112.189px " y="225.738px 225.738px 225.738px 225.738px 225.738px 225.738px 225.738px 225.738px 225.738px 225.738px 225.738px 225.738px 225.738px 225.738px 225.738px 225.738px 225.738px ">le récapitule les</tspan> p<tspan x="127.543px 131.302px 134.118px 140.702px 146.342px 149.156px 155.738px 162.319px 168.901px 174.542px 177.048px " y="225.738px 225.738px 225.738px 225.738px 225.738px 225.738px 225.738px 225.738px 225.738px 225.738px 225.738px ">rincipaux c</tspan>ri<tspan x="189.267px 192.087px 198.666px 202.426px 209.006px " y="225.738px 225.738px 225.738px 225.738px 225.738px ">tères</tspan> q<tspan x="224.362px 230.944px 233.759px 236.266px 241.906px 248.486px 255.065px 257.885px 260.705px 267.285px 270.105px 276.685px 280.444px 287.024px 293.603px 300.183px 303.943px 310.522px 313.342px 319.922px 326.502px 329.322px 334.962px 341.541px 350.941px 357.52px 360.34px 366.92px 369.74px 376.32px 382.899px 389.479px " y="225.738px 225.738px 225.738px 225.738px 225.738px 225.738px 225.738px 225.738px 225.738px 225.738px 225.738px 225.738px 225.738px 225.738px 225.738px 225.738px 225.738px 225.738px 225.738px 225.738px 225.738px 225.738px 225.738px 225.738px 225.738px 225.738px 225.738px 225.738px 225.738px 225.738px 225.738px 225.738px ">ui sont à prendre en compte dans</tspan> l<tspan x="401.069px 407.652px 410.159px 415.799px 422.382px 425.198px 430.838px 433.654px 436.478px 443.062px 445.882px 448.702px 451.522px 453.402px 459.982px 465.622px 472.203px 475.017px 481.599px 488.181px 491.001px 493.815px 500.396px 506.978px 509.796px 516.377px " y="225.738px 225.738px 225.738px 225.738px 225.738px 225.738px 225.738px 225.738px 225.738px 225.738px 225.738px 225.738px 225.738px 225.738px 225.738px 225.738px 225.738px 225.738px 225.738px 225.738px 225.738px 225.738px 225.738px 225.738px 225.738px 225.738px ">e suivi et l&apos;évaluation du</tspan></text>
                <text x="26.653px" y="239.838px" style="font-family:'ArialMT', 'Arial', sans-serif;font-size:11.28px;">T<tspan x="33.233px 42.632px 45.452px 48.272px 56.726px 63.306px 69.887px 76.467px 83.048px 89.629px 96.209px 102.79px 105.61px 108.43px 111.25px 117.829px 124.409px 130.989px 133.809px 140.388px 146.968px 153.548px 160.127px 166.707px 170.466px 177.046px 179.866px 182.68px 189.261px 195.842px 198.665px 205.246px 211.828px " y="239.838px 239.838px 239.838px 239.838px 239.838px 239.838px 239.838px 239.838px 239.838px 239.838px 239.838px 239.838px 239.838px 239.838px 239.838px 239.838px 239.838px 239.838px 239.838px 239.838px 239.838px 239.838px 239.838px 239.838px 239.838px 239.838px 239.838px 239.838px 239.838px 239.838px 239.838px 239.838px 239.838px ">M. Cependant, une pondération des</tspan> cri<tspan x="232.822px 235.642px 242.222px 245.982px 252.561px 258.201px 260.703px 267.283px 273.862px 276.682px 282.322px 288.902px 295.482px 299.241px 305.825px 308.641px 311.461px 314.281px 320.86px 323.68px 327.44px 334.02px 336.84px 343.419px 349.999px 352.819px 355.635px 362.219px 365.035px 371.618px " y="239.838px 239.838px 239.838px 239.838px 239.838px 239.838px 239.838px 239.838px 239.838px 239.838px 239.838px 239.838px 239.838px 239.838px 239.838px 239.838px 239.838px 239.838px 239.838px 239.838px 239.838px 239.838px 239.838px 239.838px 239.838px 239.838px 239.838px 239.838px 239.838px 239.838px ">tères ne saurait être définie.</tspan></text>
                <text x="26.653px" y="253.938px" style="font-family:'ArialMT', 'Arial', sans-serif;font-size:11.28px;">Se<tspan x="40.756px 43.571px 50.153px 56.735px 59.552px 62.367px 68.949px 71.772px 77.412px 83.994px 86.809px 93.391px 96.211px 99.031px 105.611px 108.431px 111.251px 114.065px 120.647px 123.471px 130.052px 136.634px 139.454px 146.033px 149.793px 156.373px 159.189px 165.768px 172.348px 175.168px 177.988px 181.748px 188.327px 193.967px 200.552px 203.369px 206.187px 209.007px 211.827px 214.647px 221.226px 227.806px 230.626px 237.206px " y="253.938px 253.938px 253.938px 253.938px 253.938px 253.938px 253.938px 253.938px 253.938px 253.938px 253.938px 253.938px 253.938px 253.938px 253.938px 253.938px 253.938px 253.938px 253.938px 253.938px 253.938px 253.938px 253.938px 253.938px 253.938px 253.938px 253.938px 253.938px 253.938px 253.938px 253.938px 253.938px 253.938px 253.938px 253.938px 253.938px 253.938px 253.938px 253.938px 253.938px 253.938px 253.938px 253.938px 253.938px ">lon le sujet et la nature du travail, toutes</tspan> l<tspan x="248.796px 255.379px 261.021px 263.525px 267.283px 273.863px 280.443px 284.202px 287.016px 293.598px 300.179px 306.761px " y="253.938px 253.938px 253.938px 253.938px 253.938px 253.938px 253.938px 253.938px 253.938px 253.938px 253.938px 253.938px ">es rubriques</tspan> so<tspan x="327.755px 334.334px 339.973px 342.482px 350.005px 352.825px 355.645px " y="253.938px 253.938px 253.938px 253.938px 253.938px 253.938px 253.938px ">us A, B</tspan> e<tspan x="372.875px 375.695px 378.515px 386.97px 389.482px 396.064px 402.647px 405.462px 411.102px 417.681px 424.261px 427.081px 429.901px 436.48px 443.06px " y="253.938px 253.938px 253.938px 253.938px 253.938px 253.938px 253.938px 253.938px 253.938px 253.938px 253.938px 253.938px 253.938px 253.938px 253.938px ">t C ne sont pas</tspan></text>
                <text x="26.653px" y="268.038px" style="font-family:'ArialMT', 'Arial', sans-serif;font-size:11.28px;">n<tspan x="33.233px 39.812px 45.452px 52.032px " y="268.038px 268.038px 268.038px 268.038px ">éces</tspan>sa<tspan x="69.896px 72.712px 76.471px 83.051px 92.451px 99.03px 105.61px 108.43px 111.25px 117.829px 123.469px 130.051px 132.864px 139.446px 146.027px 152.608px " y="268.038px 268.038px 268.038px 268.038px 268.038px 268.038px 268.038px 268.038px 268.038px 268.038px 268.038px 268.038px 268.038px 268.038px 268.038px 268.038px ">irement évaluées</tspan>.</text>
            </g>
            <g>
                <text x="3.153px" y="89.438px" style="font-family:'Arial-BoldMT', 'Arial', sans-serif;font-weight:700;font-size:11.28px;">N<tspan x="11.613px 18.189px 28.533px 31.353px 34.173px 40.749px 45.448px 52.029px 58.606px 65.182px " y="89.438px 89.438px 89.438px 89.438px 89.438px 89.438px 89.438px 89.438px 89.438px 89.438px ">om, prénom</tspan></text>
                <text x="3.153px" y="111.998px" style="font-family:'Arial-BoldMT', 'Arial', sans-serif;font-weight:700;font-size:11.28px;">T<tspan x="9.733px 12.556px 16.316px 21.012px 27.591px 30.415px 36.994px 43.574px 46.397px 52.977px " y="111.998px 111.998px 111.998px 111.998px 111.998px 111.998px 111.998px 111.998px 111.998px 111.998px ">itre du TM</tspan></text>
            </g>
            <text x="403.593px" y="89.438px" style="font-family:'Arial-BoldMT', 'Arial', sans-serif;font-weight:700;font-size:11.28px;">C<tspan x="412.053px 414.873px 421.449px 428.026px 434.602px " y="89.438px 89.438px 89.438px 89.438px 89.438px ">lasse</tspan></text>
        </g>
    </g>
    <g transform="matrix(1,0,0,1,-33.5068,-617.092)">
        <rect x="33.84" y="714.05" width="370.36" height="0.94"/>
    </g>
    <g transform="matrix(1,0,0,1,-33.5068,-507.112)">
        <rect x="57.34" y="651.07" width="0.94" height="16.92"/>
    </g>
    <g transform="matrix(1,0,0,1,-33.5068,135.848)">
        <rect x="434.28" y="149.11" width="0.94" height="377.88"/>
    </g>
    <g transform="matrix(1,0,0,1,-33.5068,135.848)">
        <rect x="458.72" y="149.11" width="0.94" height="377.88"/>
    </g>
    <g transform="matrix(1,0,0,1,-33.5068,135.848)">
        <rect x="485.04" y="149.11" width="0.94" height="377.88"/>
    </g>
    <g transform="matrix(1,0,0,1,-33.5068,135.848)">
        <rect x="510.42" y="149.11" width="0.94" height="377.88"/>
    </g>
    <g transform="matrix(1,0,0,1,-33.5068,135.848)">
        <rect x="534.86" y="149.11" width="0.94" height="377.88"/>
    </g>
    <g transform="matrix(1,0,0,1,-33.5068,101.068)">
        <rect x="33.84" y="41.95" width="0.94" height="626.98"/>
    </g>
    <g transform="matrix(1,0,0,1,-33.5068,243.008)">
        <rect x="57.34" y="41.95" width="0.94" height="485.04"/>
    </g>
    <g transform="matrix(1,0,0,1,-33.5068,102.008)">
        <rect x="559.3" y="41.95" width="0.94" height="626.04"/>
    </g>
    <g transform="matrix(1,0,0,1,-33.5068,243.008)">
        <rect x="403.26" y="41.95" width="0.94" height="485.04"/>
    </g>
    <g transform="matrix(1,0,0,1,-33.5068,637.808)">
        <rect x="434.28" y="41.95" width="0.94" height="90.24"/>
    </g>
    <g transform="matrix(1,0,0,1,-33.5068,637.808)">
        <rect x="458.72" y="41.95" width="0.94" height="90.24"/>
    </g>
    <g transform="matrix(1,0,0,1,-33.5068,637.808)">
        <rect x="485.04" y="41.95" width="0.94" height="90.24"/>
    </g>
    <g transform="matrix(1,0,0,1,-33.5068,637.808)">
        <rect x="510.42" y="41.95" width="0.94" height="90.24"/>
    </g>
    <g transform="matrix(1,0,0,1,-33.5068,637.808)">
        <rect x="534.86" y="41.95" width="0.94" height="90.24"/>
    </g>
    <g transform="matrix(1,0,0,1,-33.5068,-662.212)">
        <rect x="33.84" y="736.61" width="526.4" height="0.94"/>
    </g>
    <g transform="matrix(1,0,0,1,-33.5068,-617.092)">
        <rect x="434.28" y="714.05" width="125.96" height="0.94"/>
    </g>
    <g transform="matrix(1,0,0,1,-33.5068,-570.092)">
        <rect x="33.84" y="690.55" width="370.36" height="0.94"/>
    </g>
    <g transform="matrix(1,0,0,1,-33.5068,-524.972)">
        <rect x="34.78" y="667.99" width="525.46" height="0.94"/>
    </g>
    <g transform="matrix(1,0,0,1,-33.5068,-491.132)">
        <rect x="34.78" y="651.07" width="525.46" height="0.94"/>
    </g>
    <g transform="matrix(1,0,0,1,-33.5068,-242.972)">
        <rect x="34.78" y="526.99" width="525.46" height="0.94"/>
    </g>
    <g transform="matrix(1,0,0,1,-33.5068,-209.132)">
        <rect x="34.78" y="510.07" width="525.46" height="0.94"/>
    </g>
    <g transform="matrix(1,0,0,1,-33.5068,-175.292)">
        <rect x="34.78" y="493.15" width="525.46" height="0.94"/>
    </g>
    <g transform="matrix(1,0,0,1,-33.5068,-118.892)">
        <rect x="58.28" y="464.95" width="501.96" height="0.94"/>
    </g>
    <g transform="matrix(1,0,0,1,-33.5068,-62.492)">
        <rect x="58.28" y="436.75" width="501.96" height="0.94"/>
    </g>
    <g transform="matrix(1,0,0,1,-33.5068,-6.092)">
        <rect x="58.28" y="408.55" width="501.96" height="0.94"/>
    </g>
    <g transform="matrix(1,0,0,1,-33.5068,50.308)">
        <rect x="34.78" y="380.35" width="525.46" height="0.94"/>
    </g>
    <g transform="matrix(1,0,0,1,-33.5068,84.148)">
        <rect x="34.78" y="363.43" width="525.46" height="0.94"/>
    </g>
    <g transform="matrix(1,0,0,1,-33.5068,140.548)">
        <rect x="58.28" y="335.23" width="501.96" height="0.94"/>
    </g>
    <g transform="matrix(1,0,0,1,-33.5068,196.948)">
        <rect x="58.28" y="307.03" width="501.96" height="0.94"/>
    </g>
    <g transform="matrix(1,0,0,1,-33.5068,253.348)">
        <rect x="34.78" y="278.83" width="525.46" height="0.94"/>
    </g>
    <g transform="matrix(1,0,0,1,-33.5068,287.188)">
        <rect x="34.78" y="261.91" width="525.46" height="0.94"/>
    </g>
    <g transform="matrix(1,0,0,1,-33.5068,343.588)">
        <rect x="58.28" y="233.71" width="501.96" height="0.94"/>
    </g>
    <g transform="matrix(1,0,0,1,-33.5068,399.988)">
        <rect x="58.28" y="205.51" width="501.96" height="0.94"/>
    </g>
    <g transform="matrix(1,0,0,1,-33.5068,456.388)">
        <rect x="58.28" y="177.31" width="501.96" height="0.94"/>
    </g>
    <g transform="matrix(1,0,0,1,-33.5068,512.788)">
        <rect x="34.78" y="149.11" width="525.46" height="0.94"/>
    </g>
    <g transform="matrix(1,0,0,1,-33.5068,546.628)">
        <rect x="34.78" y="132.19" width="525.46" height="0.94"/>
    </g>
    <g transform="matrix(1,0,0,1,-33.5068,580.468)">
        <rect x="34.78" y="115.27" width="525.46" height="0.94"/>
    </g>
    <g transform="matrix(1,0,0,1,-33.5068,614.308)">
        <rect x="34.78" y="98.35" width="525.46" height="0.94"/>
    </g>
    <g transform="matrix(1,0,0,1,-33.5068,670.708)">
        <rect x="58.28" y="70.15" width="501.96" height="0.94"/>
    </g>
    <g transform="matrix(1,0,0,1,-33.5068,727.108)">
        <rect x="34.78" y="41.95" width="525.46" height="0.94"/>
    </g>
</svg>
